<?xml version="1.0" encoding="iso-8859-1"?>
<!-- Generator: Adobe Illustrator 16.0.0, SVG Export Plug-In . SVG Version: 6.00 Build 0)  -->
<!DOCTYPE svg PUBLIC "-//W3C//DTD SVG 1.1//EN" "http://www.w3.org/Graphics/SVG/1.1/DTD/svg11.dtd">
<svg version="1.1" id="Capa_1" xmlns="http://www.w3.org/2000/svg" xmlns:xlink="http://www.w3.org/1999/xlink" x="0px" y="0px"
	 width="612.283px" height="612.283px" viewBox="0 0 612.283 612.283" style="enable-background:new 0 0 612.283 612.283;"
	 xml:space="preserve">
<g>
	<g>
		<g>
			<g>
				<path d="M306.056,612.283c-0.01,0-0.015,0-0.026,0c-74.945-0.006-147.105-27.439-203.187-77.248
					c-126.209-112.092-137.69-305.97-25.596-432.188C135.299,37.486,218.766,0,306.25,0c74.939,0,147.098,27.433,203.184,77.245
					c126.214,112.096,137.7,305.976,25.604,432.19C476.987,574.795,393.523,612.283,306.056,612.283z M306.25,8.022
					c-85.193,0-166.474,36.502-223.003,100.151C-25.911,231.082-14.729,419.881,108.17,529.035
					c54.611,48.504,124.879,75.219,197.86,75.227c0.005,0,0.02,0,0.024,0c85.183,0.002,166.45-36.5,222.983-100.151
					c109.157-122.908,97.972-311.707-24.935-420.866C449.49,34.736,379.223,8.022,306.25,8.022z"/>
			</g>
			<g>
				<path d="M213.839,495.35c-2.901,0-5.877-0.237-8.847-0.709c-7.509-1.123-17.801-4.883-24.123-12.039
					c-14.537-15.166-14.58-29.784-12.054-39.387c2.283-8.67,7.358-15.09,7.575-15.359c0.672-0.854,68.712-87.014,76.081-99.723
					c6.418-11.063,14.363-17.131,21.354-20.451c-6.991-3.32-14.934-9.388-21.352-20.45c-7.371-12.709-75.411-98.869-76.097-99.739
					c-0.202-0.254-5.277-6.675-7.56-15.348c-2.635-10.021-2.424-25.248,13.538-40.881c5.412-5.073,16.839-10.926,31.436-10.926
					c10.185,0,25.158,2.958,38.646,17.052l0.319,0.379l68.336,91.793l53.834-68.734c0.197-0.255,5.068-6.429,14.187-11.403
					c3.121-2.257,13.293-8.691,27.631-8.691c6.528,0,13.132,1.327,19.619,3.945c12.707,5.126,21.588,15.881,24.363,29.506
					c2.612,12.821-0.679,26.085-8.383,33.79c-12.714,12.712-66.313,82.456-68.676,85.535c-0.843,1.237-6.541,9.216-16.704,14.173
					c10.161,4.957,15.861,12.935,16.704,14.173c2.356,3.069,55.962,72.819,68.676,85.53c7.704,7.707,10.993,20.972,8.383,33.791
					c-2.775,13.625-11.656,24.381-24.363,29.513c-6.486,2.616-13.085,3.942-19.608,3.942h-0.006
					c-17.322-0.002-28.403-9.25-28.866-9.645l-0.472-0.474l-66.297-78.735l-68.356,91.82
					C252.145,478.385,238.667,495.35,213.839,495.35z M290.122,311.721c-3.148,0-19.428,0.984-30.712,20.438
					c-7.655,13.201-73.921,97.119-76.739,100.686c-0.05,0.063-4.26,5.438-6.097,12.412c-2.92,11.096,0.493,21.812,10.14,31.851
					l0.124,0.135c4.579,5.223,13.031,8.521,19.375,9.473c2.588,0.41,5.142,0.615,7.625,0.615c20.949,0,32.421-14.443,32.533-14.59
					l74.354-99.877l72.566,86.182c1.478,1.141,10.397,7.562,23.457,7.564h0.003c5.491,0,11.077-1.132,16.606-3.361
					c13.92-5.617,18.196-17.242,19.506-23.672c2.058-10.099-0.434-20.754-6.192-26.519c-13.306-13.301-67.157-83.44-69.443-86.418
					l-0.171-0.239c-0.088-0.132-9.69-14.265-26.484-14.666l-1.884-0.039l-0.019-8.021l1.906-0.042
					c16.916-0.401,26.388-14.523,26.479-14.666l0.171-0.239c2.286-2.979,56.139-73.12,69.443-86.422
					c5.762-5.762,8.252-16.418,6.192-26.515c-1.31-6.429-5.586-18.053-19.506-23.667c-5.53-2.233-11.122-3.365-16.617-3.365
					c-12.268,0-20.779,5.582-23.098,7.294l-0.481,0.305c-7.709,4.152-11.881,9.372-11.924,9.423l-54.475,69.548l-6.04,7.177
					l-74.25-99.744c-11.486-11.897-24.104-14.401-32.683-14.401c-11.47,0-21.267,4.367-25.888,8.698
					c-10.54,10.326-14.374,21.464-11.329,33.048c1.837,6.981,6.047,12.354,6.089,12.407c2.826,3.576,69.092,87.495,76.749,100.697
					c11.281,19.451,27.563,20.438,30.71,20.438c0.202,0,0.328-0.005,0.369-0.007l0.125-0.006l4.239,0.042l-0.002,8.021l-4.237,0.043
					l-0.147-0.011C290.451,311.725,290.324,311.721,290.122,311.721z"/>
			</g>
		</g>
	</g>
</g>
<g>
</g>
<g>
</g>
<g>
</g>
<g>
</g>
<g>
</g>
<g>
</g>
<g>
</g>
<g>
</g>
<g>
</g>
<g>
</g>
<g>
</g>
<g>
</g>
<g>
</g>
<g>
</g>
<g>
</g>
</svg>
