<?xml version="1.0" encoding="iso-8859-1"?>
<!-- Generator: Adobe Illustrator 16.0.0, SVG Export Plug-In . SVG Version: 6.00 Build 0)  -->
<!DOCTYPE svg PUBLIC "-//W3C//DTD SVG 1.1//EN" "http://www.w3.org/Graphics/SVG/1.1/DTD/svg11.dtd">
<svg version="1.1" id="Capa_1" xmlns="http://www.w3.org/2000/svg" xmlns:xlink="http://www.w3.org/1999/xlink" x="0px" y="0px"
	 width="612.283px" height="612.283px" viewBox="0 0 612.283 612.283" style="enable-background:new 0 0 612.283 612.283;"
	 xml:space="preserve">
<g>
	<g>
		<g>
			<g>
				<path d="M306.06,612.283h-0.027c-74.945-0.008-147.103-27.439-203.183-77.246C-23.363,422.941-34.85,229.063,77.245,102.848
					C135.298,37.488,218.766,0,306.253,0c74.938,0,147.101,27.436,203.188,77.249c126.207,112.091,137.688,305.97,25.597,432.187
					C476.986,574.797,393.526,612.283,306.06,612.283z M306.253,8.022c-85.196,0-166.479,36.504-223.009,100.152
					c-109.157,122.907-97.97,311.707,24.935,420.865c54.609,48.498,124.875,75.213,197.855,75.219h0.027
					c85.181,0.004,166.447-36.5,222.98-100.149C638.196,381.2,627.014,192.4,504.114,83.247
					C449.494,34.738,379.227,8.022,306.253,8.022z"/>
			</g>
			<g>
				<g>
					<path d="M125.046,419.926H72.741V192.355h81.5c11.839,0,22.007,2.054,30.218,6.106c8.207,4.048,14.94,9.453,20.011,16.065
						c5.017,6.544,8.666,14.114,10.848,22.496c2.127,8.213,3.206,16.672,3.206,25.148c0,11.738-1.805,22.173-5.367,31.019
						c-3.595,8.942-8.713,16.381-15.207,22.112c-6.463,5.691-14.354,10.002-23.458,12.816c-8.95,2.771-18.969,4.178-29.782,4.178
						h-19.664V419.926L125.046,419.926z M80.765,411.904h36.261V324.27h27.686c10.005,0,19.228-1.284,27.41-3.817
						c8.018-2.479,14.923-6.236,20.526-11.172c5.545-4.893,9.943-11.315,13.07-19.089c3.175-7.887,4.786-17.315,4.786-28.021
						c0-7.797-0.992-15.581-2.949-23.131c-1.908-7.335-5.087-13.941-9.449-19.63c-4.314-5.625-10.1-10.254-17.193-13.753
						c-7.098-3.5-16.072-5.277-26.669-5.277H80.765V411.904z"/>
				</g>
				<g>
					<path d="M308.292,419.926h-73.806V192.355h76.577c15.962,0,29.114,2.694,39.089,8.008
						c10.081,5.372,18.021,13.144,23.599,23.102c5.448,9.72,9.178,21.519,11.084,35.07c1.86,13.238,2.806,28.221,2.806,44.53
						c0,19.381-1.208,36.518-3.587,50.93c-2.437,14.703-6.708,27.041-12.701,36.674c-6.129,9.854-14.462,17.293-24.768,22.117
						C336.46,417.523,323.576,419.926,308.292,419.926z M242.509,411.904h65.784c14.101,0,25.84-2.148,34.893-6.386
						c8.874-4.153,16.062-10.573,21.354-19.09c5.437-8.729,9.337-20.086,11.599-33.742c2.309-13.981,3.48-30.676,3.48-49.622
						c0-15.937-0.917-30.543-2.728-43.415c-1.768-12.561-5.178-23.418-10.137-32.265c-4.816-8.597-11.669-15.307-20.373-19.943
						c-8.799-4.688-20.684-7.066-35.317-7.066h-68.555V411.904L242.509,411.904z"/>
				</g>
				<g>
					<path d="M461.128,419.926h-52.302V192.355h130.712v44.307h-78.41v43.636h73.795v44.307h-73.795V419.926L461.128,419.926z
						 M416.849,411.904h36.258v-95.32H526.9v-28.263h-73.794v-59.68h78.41v-28.263H416.849V411.904z"/>
				</g>
			</g>
		</g>
	</g>
</g>
<g>
</g>
<g>
</g>
<g>
</g>
<g>
</g>
<g>
</g>
<g>
</g>
<g>
</g>
<g>
</g>
<g>
</g>
<g>
</g>
<g>
</g>
<g>
</g>
<g>
</g>
<g>
</g>
<g>
</g>
</svg>
